C:\GBW_MyPrograms\KinderuniversiteitApp\Resultaten\Ellis_v10102025\Jullie_lengte\Jullie_lengte_v8.mot
version=1
nRows=9
nColumns=29
inDegrees=yes
endheader
                time	         pelvis_tilt	           pelvis_tx	           pelvis_ty	       hip_flexion_l	       hip_flexion_r	        knee_angle_l	        knee_angle_r	       ankle_angle_l	       ankle_angle_r	    lumbar_extension	hamstrings_r/activation	bifemsh_r/activation	glut_max_r/activation	iliopsoas_r/activation	rect_fem_r/activation	  vasti_r/activation	gastroc_r/activation	 soleus_r/activation	tib_ant_r/activation	hamstrings_l/activation	bifemsh_l/activation	glut_max_l/activation	iliopsoas_l/activation	rect_fem_l/activation	  vasti_l/activation	gastroc_l/activation	 soleus_l/activation	tib_ant_l/activation	
          0.00000000	         -4.59826667	          0.00000000	          0.67265240	        -11.56690815	         29.09206646	         -9.49791539	        -12.12239366	          8.24030929	          9.16365411	         -1.61619634	          0.12414281	          0.05000369	          0.05001599	          0.05000096	          0.05664071	          0.05000175	          0.05442739	          0.05000075	          0.21875016	          0.05000133	          0.12700149	          0.05000781	          0.38393553	          0.05000367	          0.05000120	          0.19700112	          0.25272060	          0.05000025	
          0.01048802	         -4.64420928	          0.01164743	          0.67222338	        -11.28215224	         28.08786683	        -11.75404593	        -11.73340679	          7.60434289	          8.92204567	         -1.15776476	          0.10567221	          0.05429754	          0.05000324	          0.05000227	          0.05000357	          0.05000209	          0.06627739	          0.05976507	          0.21154720	          0.05000180	          0.10810494	          0.07663022	          0.35271110	          0.05000271	          0.05000098	          0.16768908	          0.22951919	          0.05000030	
          0.02097605	         -4.68156896	          0.02353532	          0.67178870	        -10.87287088	         27.04193370	        -14.26054170	        -11.67199581	          6.79545691	          8.70654801	         -0.66797603	          0.08995096	          0.06898893	          0.05871352	          0.05000065	          0.05000082	          0.05547716	          0.05716903	          0.05087464	          0.22447907	          0.05000412	          0.09202005	          0.11188899	          0.30662351	          0.05000114	          0.05000065	          0.14273840	          0.19536883	          0.05000019	
          0.03146407	         -4.71316100	          0.03543342	          0.67149963	        -10.32349669	         26.07107991	        -16.97720471	        -11.73319459	          5.71437898	          8.40498861	         -0.18178099	          0.07656744	          0.05872897	          0.10218813	          0.05000055	          0.05000120	          0.11336589	          0.05000435	          0.05000148	          0.24893787	          0.05000164	          0.07832851	          0.09524123	          0.28472820	          0.05000224	          0.05086301	          0.12150016	          0.16629963	          0.05000014	
          0.04195209	         -4.74198363	          0.04709642	          0.67158523	         -9.57688349	         25.24057842	        -19.91952933	        -11.99094507	          4.21981045	          8.10538969	          0.26394755	          0.06517674	          0.05000619	          0.12261837	          0.05000060	          0.05000156	          0.16836367	          0.05000234	          0.05000166	          0.26480467	          0.05000156	          0.06667435	          0.08107028	          0.26030309	          0.05000235	          0.05000097	          0.10342199	          0.14155567	          0.05000217	
          0.05244012	         -4.76956112	          0.05840181	          0.67211566	         -8.62016606	         24.48480995	        -23.08095979	        -12.32703714	          2.45745494	          7.87337452	          0.65186469	          0.06477392	          0.05000707	          0.14119594	          0.05000052	          0.05000114	          0.21287278	          0.05000117	          0.05000153	          0.27622813	          0.05000279	          0.05675518	          0.06900780	          0.23419267	          0.05000105	          0.05000025	          0.08803371	          0.12049341	          0.19688188	
          0.06292814	         -4.79711351	          0.06926694	          0.67292081	         -7.53722723	         23.73001448	        -26.27851398	        -12.59968392	          1.40105240	          7.72274351	          0.97015583	          0.05598507	          0.05000462	          0.14390913	          0.05000053	          0.05000156	          0.23408813	          0.05000098	          0.05000088	          0.28326350	          0.05351403	          0.09579417	          0.05874014	          0.21881316	          0.05000080	          0.05000012	          0.07493519	          0.10256504	          0.20210116	
          0.07341616	         -4.82515032	          0.07968295	          0.67393312	         -6.41562301	         22.94010465	        -29.14450259	        -12.74434745	          1.33626826	          7.64431794	          1.21878727	          0.05501352	          0.05000592	          0.13239292	          0.05000054	          0.05000155	          0.23740318	          0.05000106	          0.05000118	          0.27984498	          0.06979572	          0.11976059	          0.05000057	          0.20061979	          0.05000094	          0.05000012	          0.06378800	          0.08730429	          0.24091317	
          0.08390418	         -4.85251615	          0.08968547	          0.67516368	         -5.24531173	         22.11168541	        -31.70776772	        -12.76373693	          1.68296928	          7.63432116	          1.40341820	          0.05314117	          0.05000500	          0.11290678	          0.05000065	          0.05000221	          0.23016564	          0.05000109	          0.05000147	          0.27152640	          0.07810860	          0.14253500	          0.05000035	          0.18665740	          0.05000106	          0.05000013	          0.05708173	          0.07431420	          0.23369836	
